<?xml version="1.0" standalone="no"?>
<!DOCTYPE svg PUBLIC "-//W3C//DTD SVG 20010904//EN"
 "http://www.w3.org/TR/2001/REC-SVG-20010904/DTD/svg10.dtd">
<svg version="1.0" xmlns="http://www.w3.org/2000/svg"
 width="582.000000pt" height="582.000000pt" viewBox="0 0 582.000000 582.000000"
 preserveAspectRatio="xMidYMid meet">
<metadata>
Created by potrace 1.11, written by Peter Selinger 2001-2013
</metadata>
<g transform="translate(0.000000,582.000000) scale(0.100000,-0.100000)"
fill="#000000" stroke="none">
<path d="M3154 5212 l234 -467 -214 -425 c-117 -234 -213 -430 -213 -435 -1
-6 37 -16 82 -23 308 -45 580 -244 721 -529 l33 -66 459 -233 c252 -129 468
-234 478 -234 15 0 899 440 914 455 13 13 -57 341 -105 490 -313 981 -1124
1699 -2133 1890 -110 21 -336 45 -423 45 l-67 0 234 -468z"/>
<path d="M2390 5635 c-424 -81 -815 -254 -1159 -513 -141 -106 -373 -330 -483
-466 -353 -438 -557 -944 -608 -1511 -12 -130 -13 -215 -3 -215 4 0 211 102
460 228 l452 227 436 -217 c239 -120 439 -218 444 -218 4 0 11 30 14 68 29
326 266 646 575 776 l56 24 235 463 235 464 -230 455 -230 455 -35 2 c-19 1
-90 -9 -159 -22z"/>
<path d="M605 2813 c-247 -124 -452 -227 -454 -229 -2 -2 2 -40 8 -86 63 -438
261 -909 533 -1265 410 -538 1023 -921 1665 -1043 202 -38 533 -65 533 -44 0
3 -105 212 -232 464 l-233 459 217 434 c119 239 214 438 211 441 -4 3 -25 6
-48 6 -66 0 -224 44 -318 89 -202 97 -358 257 -472 486 -19 38 -35 47 -490
276 l-470 237 -450 -225z"/>
<path d="M5195 2678 l-460 -230 -432 216 c-238 119 -435 216 -437 216 -2 0 -6
-33 -9 -72 -26 -314 -237 -618 -532 -763 l-89 -44 -232 -463 -232 -463 229
-457 c208 -416 231 -458 253 -458 50 0 296 51 417 85 1040 302 1810 1184 1969
2255 23 153 38 410 24 409 -5 0 -216 -104 -469 -231z"/>
</g>
</svg>
