{
	"asset":{
		"generator":"Khronos glTF Blender I/O v4.3.47",
		"version":"2.0"
	},
	"scene":0,
	"scenes":[
		{
			"name":"Scene",
			"nodes":[
				0,
				1,
				2,
				3
			]
		}
	],
	"nodes":[
		{
			"mesh":0,
			"name":"Curve",
			"translation":[
				-0.03582197055220604,
				0,
				0.03582197055220604
			]
		},
		{
			"mesh":1,
			"name":"Curve.001",
			"translation":[
				-0.03582197055220604,
				0,
				0.03582197055220604
			]
		},
		{
			"mesh":2,
			"name":"Curve.002",
			"translation":[
				-0.03582197055220604,
				0,
				0.03582197055220604
			]
		},
		{
			"mesh":3,
			"name":"Curve.003",
			"translation":[
				-0.03582197055220604,
				0,
				0.03582197055220604
			]
		}
	],
	"materials":[
		{
			"doubleSided":true,
			"name":"SVGMat.001",
			"pbrMetallicRoughness":{
				"baseColorFactor":[
					0.011612244881689548,
					0.2917706370353699,
					0.6514056324958801,
					1
				],
				"metallicFactor":0,
				"roughnessFactor":0.4000000059604645
			}
		},
		{
			"doubleSided":true,
			"name":"SVGMat.002",
			"pbrMetallicRoughness":{
				"baseColorFactor":[
					0.4125426113605499,
					0.6514056324958801,
					0.8631572127342224,
					1
				],
				"metallicFactor":0,
				"roughnessFactor":0.4000000059604645
			}
		},
		{
			"doubleSided":true,
			"name":"SVGMat.003",
			"pbrMetallicRoughness":{
				"baseColorFactor":[
					0.011612244881689548,
					0.2917706370353699,
					0.6514056324958801,
					1
				],
				"metallicFactor":0,
				"roughnessFactor":0.4000000059604645
			}
		},
		{
			"doubleSided":true,
			"name":"SVGMat.004",
			"pbrMetallicRoughness":{
				"baseColorFactor":[
					0.011612244881689548,
					0.2917706370353699,
					0.6514056324958801,
					1
				],
				"metallicFactor":0,
				"roughnessFactor":0.4000000059604645
			}
		}
	],
	"meshes":[
		{
			"name":"Curve",
			"primitives":[
				{
					"attributes":{
						"POSITION":0,
						"NORMAL":1,
						"TEXCOORD_0":2
					},
					"indices":3,
					"material":0
				}
			]
		},
		{
			"name":"Curve.001",
			"primitives":[
				{
					"attributes":{
						"POSITION":4,
						"NORMAL":5,
						"TEXCOORD_0":6
					},
					"indices":7,
					"material":1
				}
			]
		},
		{
			"name":"Curve.002",
			"primitives":[
				{
					"attributes":{
						"POSITION":8,
						"NORMAL":9,
						"TEXCOORD_0":10
					},
					"indices":11,
					"material":2
				}
			]
		},
		{
			"name":"Curve.003",
			"primitives":[
				{
					"attributes":{
						"POSITION":12,
						"NORMAL":13,
						"TEXCOORD_0":14
					},
					"indices":15,
					"material":3
				}
			]
		}
	],
	"accessors":[
		{
			"bufferView":0,
			"componentType":5126,
			"count":498,
			"max":[
				0.07031168043613434,
				0.009999999776482582,
				-0.03483995050191879
			],
			"min":[
				0.03634076565504074,
				-0.009999999776482582,
				-0.070675328373909
			],
			"type":"VEC3"
		},
		{
			"bufferView":1,
			"componentType":5126,
			"count":498,
			"type":"VEC3"
		},
		{
			"bufferView":2,
			"componentType":5126,
			"count":498,
			"type":"VEC2"
		},
		{
			"bufferView":3,
			"componentType":5123,
			"count":1476,
			"type":"SCALAR"
		},
		{
			"bufferView":4,
			"componentType":5126,
			"count":554,
			"max":[
				0.037884000688791275,
				0.009999999776482582,
				-0.03645751625299454
			],
			"min":[
				0.001620762748643756,
				-0.009999999776482582,
				-0.07038945704698563
			],
			"type":"VEC3"
		},
		{
			"bufferView":5,
			"componentType":5126,
			"count":554,
			"type":"VEC3"
		},
		{
			"bufferView":6,
			"componentType":5126,
			"count":554,
			"type":"VEC2"
		},
		{
			"bufferView":7,
			"componentType":5123,
			"count":1644,
			"type":"SCALAR"
		},
		{
			"bufferView":8,
			"componentType":5126,
			"count":678,
			"max":[
				0.035967402160167694,
				0.009999999776482582,
				-0.0017254716949537396
			],
			"min":[
				0.0018728123977780342,
				-0.009999999776482582,
				-0.037801343947649
			],
			"type":"VEC3"
		},
		{
			"bufferView":9,
			"componentType":5126,
			"count":678,
			"type":"VEC3"
		},
		{
			"bufferView":10,
			"componentType":5126,
			"count":678,
			"type":"VEC2"
		},
		{
			"bufferView":11,
			"componentType":5123,
			"count":2016,
			"type":"SCALAR"
		},
		{
			"bufferView":12,
			"componentType":5126,
			"count":458,
			"max":[
				0.07055822014808655,
				0.009999999776482582,
				-0.001990854274481535
			],
			"min":[
				0.03449883684515953,
				-0.009999999776482582,
				-0.03619621694087982
			],
			"type":"VEC3"
		},
		{
			"bufferView":13,
			"componentType":5126,
			"count":458,
			"type":"VEC3"
		},
		{
			"bufferView":14,
			"componentType":5126,
			"count":458,
			"type":"VEC2"
		},
		{
			"bufferView":15,
			"componentType":5123,
			"count":1344,
			"type":"SCALAR"
		}
	],
	"bufferViews":[
		{
			"buffer":0,
			"byteLength":5976,
			"byteOffset":0,
			"target":34962
		},
		{
			"buffer":0,
			"byteLength":5976,
			"byteOffset":5976,
			"target":34962
		},
		{
			"buffer":0,
			"byteLength":3984,
			"byteOffset":11952,
			"target":34962
		},
		{
			"buffer":0,
			"byteLength":2952,
			"byteOffset":15936,
			"target":34963
		},
		{
			"buffer":0,
			"byteLength":6648,
			"byteOffset":18888,
			"target":34962
		},
		{
			"buffer":0,
			"byteLength":6648,
			"byteOffset":25536,
			"target":34962
		},
		{
			"buffer":0,
			"byteLength":4432,
			"byteOffset":32184,
			"target":34962
		},
		{
			"buffer":0,
			"byteLength":3288,
			"byteOffset":36616,
			"target":34963
		},
		{
			"buffer":0,
			"byteLength":8136,
			"byteOffset":39904,
			"target":34962
		},
		{
			"buffer":0,
			"byteLength":8136,
			"byteOffset":48040,
			"target":34962
		},
		{
			"buffer":0,
			"byteLength":5424,
			"byteOffset":56176,
			"target":34962
		},
		{
			"buffer":0,
			"byteLength":4032,
			"byteOffset":61600,
			"target":34963
		},
		{
			"buffer":0,
			"byteLength":5496,
			"byteOffset":65632,
			"target":34962
		},
		{
			"buffer":0,
			"byteLength":5496,
			"byteOffset":71128,
			"target":34962
		},
		{
			"buffer":0,
			"byteLength":3664,
			"byteOffset":76624,
			"target":34962
		},
		{
			"buffer":0,
			"byteLength":2688,
			"byteOffset":80288,
			"target":34963
		}
	],
	"buffers":[
		{
			"byteLength":82976,
			"uri":"digilean3d.bin"
		}
	]
}
